 
<svg width="64" height="64" viewBox="0 0 64 64" fill="none" xmlns="http://www.w3.org/2000/svg">
<g clip-path="url(#clip0)">
<path d="M4.51765 0C4.96941 0 5.49647 0 5.94824 0C23.6424 0 41.3365 0 59.0306 0C59.1812 0 59.3318 0 59.4824 0C61.8918 0.452297 63.7741 2.78916 64 5.65371C64 5.95524 64 6.18139 64 6.48292C64 23.5194 64 40.556 64 57.5925C64 59.1755 63.6235 60.6832 62.6447 61.9647C61.6659 63.3216 60.3106 64.0754 58.5788 64.0754C40.8847 64.0754 23.1906 64.0754 5.49647 64.0754C2.63529 64.0754 0.376471 61.6631 0.0752941 58.4971C0.0752941 58.1201 0.0752941 57.7432 0.0752941 57.4417C0 40.4052 0 23.5194 0 6.5583C0 4.74912 0.376471 3.16608 1.50588 1.7338C2.25882 0.829211 3.23765 0.150766 4.51765 0ZM21.0824 38.4452C21.0071 38.3698 21.0071 38.3698 20.9318 38.2945C21.3835 36.4853 21.8353 34.6761 22.1365 32.8669C22.2871 32.1131 22.6635 31.8115 23.3412 31.6608C25.1482 31.1331 26.9553 30.6054 28.9882 29.927C26.88 29.3239 24.9976 28.7208 23.1153 28.1932C22.5882 28.0424 22.2871 27.7409 22.2118 27.1378C21.76 25.0271 21.2329 22.9918 20.7059 20.881C20.0282 22.9164 19.5012 25.0271 19.0494 27.0624C18.8988 27.7409 18.5976 28.0424 17.9953 28.1932C16.1129 28.7208 14.3059 29.3239 12.2729 29.927C14.3059 30.53 16.1882 31.1331 17.9953 31.6608C18.5976 31.8115 18.9741 32.1131 19.0494 32.7915C19.2753 34.073 19.6518 35.2792 19.9529 36.5607C20.48 38.8975 20.48 38.9729 18.1459 39.4252C15.1341 40.1037 15.6612 40.556 13.5529 37.616C11.8965 35.2792 11.0682 32.6408 11.5953 29.7762C12.1224 26.987 13.6282 24.8009 15.6612 22.9918C20.2541 18.9965 25.7506 17.338 31.6988 16.735C35.6141 16.3581 39.5294 16.735 43.2941 17.7903C43.4447 17.8657 43.8212 18.1673 43.8965 17.6396C43.9718 17.338 44.0471 16.9611 43.5953 16.8857C43.4447 16.8857 43.2188 16.735 43.0682 16.735C39.8306 15.6796 36.4424 15.1519 33.0541 15.0766C27.4071 15.0012 21.9859 16.1319 17.0165 18.9211C13.8541 20.6549 11.2188 22.9918 9.63765 26.3086C7.45412 30.8316 8.28235 35.1284 10.6165 39.3498C11.2941 40.556 12.1224 41.0082 13.4776 41.0836C22.3624 41.159 30.0424 38.0683 36.2165 31.6608C39.6047 28.1932 43.4447 25.6302 48.2635 24.5748C48.5647 24.4994 48.8659 24.3486 49.1671 24.6502C49.6941 25.3286 50.2965 25.9317 50.5976 26.7609C50.3718 26.8363 50.1459 26.9117 49.9953 26.987C47.36 27.4393 45.1765 28.6455 43.1435 30.3039C41.4118 31.6608 39.9059 33.3192 38.3247 34.8269C37.0447 36.1084 35.6894 37.3899 34.1082 38.3699C25.8259 44.0989 16.5647 45.5312 6.62588 43.722C6.09882 43.6466 5.57176 43.4959 5.04471 43.4205C4.51765 43.3451 4.06588 43.1943 3.53882 43.119C3.61412 43.3451 3.76471 43.4205 3.91529 43.4959C7.60471 45.0789 11.4447 45.682 15.36 46.0589C16.4894 46.1343 17.6941 46.0589 18.7482 46.4358C24.32 48.6219 30.1176 49.3004 35.9906 48.5465C40.8094 47.9435 45.2518 46.4358 49.1671 43.5713C54.0612 39.8775 56.5459 35.2038 54.8894 28.947C54.7388 28.4193 55.04 28.3439 55.4165 28.1932C57.0729 27.4393 58.8047 26.987 60.6118 26.7609C60.3859 26.5347 60.0847 26.5347 59.8588 26.4594C58.4282 26.2332 56.9977 26.1578 55.6424 26.3086C54.5129 26.384 53.6847 26.2332 53.3082 25.0271C53.1576 24.5748 52.8565 24.2733 52.6306 23.8963C52.48 23.5948 52.2541 23.4441 51.8776 23.4441C48.7153 23.5194 45.4776 23.3687 42.3153 23.821C37.7976 24.424 33.9576 26.2332 31.0965 29.8516C30.2682 30.9069 29.44 31.8869 28.5365 32.9423C26.5035 35.2792 24.0941 37.2391 21.0824 38.4452Z" fill="#174769"/>
<path d="M21.0823 38.4452C24.0941 37.2391 26.5035 35.2791 28.5365 32.7915C29.3647 31.7361 30.2682 30.7561 31.0965 29.7008C34.0329 26.0824 37.8729 24.2732 42.3153 23.6702C45.4776 23.2179 48.7153 23.2932 51.8776 23.2932C52.2541 23.2932 52.48 23.444 52.6306 23.7455C52.8565 24.1225 53.1576 24.4994 53.3082 24.8763C53.6847 26.0824 54.5129 26.3086 55.6423 26.1578C57.0729 26.007 58.5035 26.1578 59.8588 26.3086C60.16 26.3839 60.3859 26.3086 60.6118 26.6101C58.8047 26.8362 57.0729 27.2885 55.4165 28.0424C55.1153 28.1931 54.7388 28.2685 54.8894 28.7962C56.4706 35.053 53.9859 39.7267 49.1671 43.4205C45.2518 46.3604 40.8094 47.7927 35.9906 48.3957C30.0423 49.1495 24.32 48.4711 18.7482 46.285C17.6941 45.8327 16.4894 45.9835 15.36 45.9081C11.4447 45.5312 7.52941 44.9281 3.91529 43.3451C3.7647 43.2697 3.68941 43.1943 3.53882 42.9682C4.06588 43.0435 4.51764 43.1943 5.0447 43.2697C5.57176 43.3451 6.09882 43.4958 6.62588 43.5712C16.4894 45.3804 25.7506 43.9481 34.1835 38.219C35.6894 37.1637 37.0447 35.9576 38.4 34.6761C39.9812 33.1684 41.4871 31.51 43.2188 30.1531C45.2518 28.4947 47.4353 27.2885 50.0706 26.8362C50.2965 26.8362 50.4471 26.6855 50.6729 26.6101C50.2965 25.7809 49.6941 25.1778 49.2423 24.4994C48.9412 24.1225 48.64 24.3486 48.3388 24.424C43.5953 25.5547 39.68 28.0424 36.2918 31.51C30.0423 38.0683 22.4376 41.159 13.5529 41.0836C12.2729 41.0836 11.3694 40.6313 10.6918 39.3498C8.43294 35.1283 7.6047 30.8315 9.71294 26.3086C11.2941 22.9917 13.9294 20.7302 17.0918 18.921C22.0612 16.1319 27.4823 15.0011 33.1294 15.0765C36.5176 15.1519 39.9059 15.6796 43.1435 16.7349C43.2941 16.8103 43.4447 16.8857 43.6706 16.8857C44.1976 16.9611 44.0471 17.338 43.9718 17.6395C43.8965 18.1672 43.52 17.7903 43.3694 17.7903C39.5294 16.7349 35.6894 16.358 31.7741 16.7349C25.8259 17.2626 20.3294 18.9964 15.7365 22.9917C13.7035 24.8009 12.1223 26.987 11.6706 29.7762C11.1435 32.7161 11.9718 35.2791 13.6282 37.616C15.7365 40.5559 15.2094 40.0282 18.2212 39.4252C20.5553 38.8975 20.5553 38.8221 20.0282 36.5606C19.7271 35.2791 19.3506 34.073 19.1247 32.7915C18.9741 32.113 18.6729 31.8869 18.0706 31.6607C16.1882 31.1331 14.3812 30.53 12.3482 29.9269C14.3812 29.3239 16.2635 28.7208 18.0706 28.1931C18.6729 28.0424 18.9741 27.7408 19.1247 27.0624C19.5765 25.0271 20.1035 22.9163 20.7812 20.881C21.3082 22.9917 21.8353 25.0271 22.2871 27.1378C22.4376 27.7408 22.6635 27.967 23.1906 28.1931C25.0729 28.7208 26.9553 29.3239 29.0635 29.9269C27.0306 30.53 25.2235 31.1331 23.4165 31.6607C22.7388 31.8869 22.3623 32.113 22.2118 32.8669C21.8353 34.676 21.3835 36.4852 21.0071 38.2944C21.0071 38.3698 20.9318 38.3698 20.9318 38.4452C20.9318 38.4452 21.0071 38.4452 21.0823 38.4452ZM52.1788 30.1531C51.7271 30.1531 51.5765 30.4546 51.2753 30.6054C49.3176 32.0377 47.7365 33.8468 46.0047 35.5053C41.487 39.9528 36.2165 43.1189 30.0423 44.702C27.3318 45.3804 24.5459 45.9081 21.6847 46.1342C23.5671 46.6619 25.5247 46.9635 27.4823 47.0388C33.6565 47.3404 39.5294 46.285 44.9506 43.1943C47.5859 41.6867 49.8447 39.8021 51.2753 37.0883C52.48 34.9776 52.7812 32.6407 52.1788 30.1531ZM16.4894 30.0023C17.5435 30.3038 18.2965 30.6054 19.1247 30.8315C19.5765 30.9823 19.8776 31.2084 19.9529 31.7361C20.1035 32.6407 20.4047 33.5453 20.6306 34.5253C21.0071 33.6207 21.2329 32.7161 21.3835 31.8869C21.4588 31.3592 21.76 30.9823 22.3623 30.9069C23.1906 30.6808 23.9435 30.53 24.7718 30.0777C23.8682 29.7762 23.04 29.4746 22.2118 29.3239C21.76 29.2485 21.6094 28.947 21.4588 28.57C21.2329 27.5901 21.0071 26.6855 20.7059 25.4793C20.4047 26.6855 20.1788 27.5901 19.9529 28.57C19.8776 29.0223 19.6518 29.3239 19.2 29.3993C18.3718 29.3993 17.5435 29.6254 16.4894 30.0023Z" fill="#FAF9FB"/>
<path d="M52.1788 30.1531C52.7812 32.5653 52.4047 34.9022 51.2753 37.0883C49.7694 39.8021 47.5106 41.6866 44.9506 43.1943C39.5294 46.285 33.6565 47.3404 27.4823 47.0388C25.5247 46.9634 23.6423 46.6619 21.6847 46.1342C24.5459 45.9081 27.2565 45.4558 30.0423 44.702C36.2165 43.1189 41.487 39.8775 46.0047 35.5053C47.7365 33.8468 49.3929 32.0376 51.2753 30.6054C51.5765 30.4546 51.8023 30.2285 52.1788 30.1531Z" fill="#174769"/>
<path d="M16.4894 30.0024C17.5436 29.7009 18.3718 29.3994 19.2 29.1732C19.6518 29.0224 19.8777 28.7963 19.953 28.344C20.1036 27.4394 20.4047 26.4594 20.7059 25.2533C21.0071 26.4594 21.233 27.4394 21.4589 28.344C21.5341 28.7963 21.76 29.0224 22.2118 29.0978C23.04 29.324 23.8683 29.6255 24.7718 29.8516C23.9436 30.3039 23.1153 30.4547 22.3624 30.6809C21.76 30.8316 21.5341 31.1332 21.3836 31.6608C21.233 32.5654 21.0071 33.3946 20.6306 34.2992C20.4047 33.3946 20.1036 32.49 19.953 31.5101C19.8777 30.9824 19.5765 30.7562 19.1247 30.6055C18.2965 30.6055 17.5436 30.3039 16.4894 30.0024Z" fill="#174769"/>
</g>
<defs>
<clipPath id="clip0">
<rect width="64" height="64" fill="white"/>
</clipPath>
</defs>
</svg>
